<mxfile host="app.diagrams.net" modified="2022-02-23T01:22:28.274Z" agent="5.0 (X11; Linux x86_64) AppleWebKit/537.36 (KHTML, like Gecko) Chrome/98.0.4758.102 Safari/537.36" etag="6ZbYFX7Lfcv4oUBITS0r" version="16.6.2" type="github">
  <diagram id="DXRlEidMT82Agx_vgwcB" name="Page-1">
    <mxGraphModel dx="963" dy="516" grid="1" gridSize="10" guides="1" tooltips="1" connect="1" arrows="1" fold="1" page="1" pageScale="1" pageWidth="850" pageHeight="1100" math="0" shadow="0">
      <root>
        <mxCell id="0" />
        <mxCell id="1" parent="0" />
        <mxCell id="OjJVH0gl61xDJa_e_lBE-6" value="" style="edgeStyle=orthogonalEdgeStyle;rounded=0;orthogonalLoop=1;jettySize=auto;html=1;" edge="1" parent="1" source="OjJVH0gl61xDJa_e_lBE-2" target="OjJVH0gl61xDJa_e_lBE-5">
          <mxGeometry relative="1" as="geometry" />
        </mxCell>
        <mxCell id="OjJVH0gl61xDJa_e_lBE-2" value="INICIO" style="ellipse;whiteSpace=wrap;html=1;" vertex="1" parent="1">
          <mxGeometry x="80" y="30" width="120" height="80" as="geometry" />
        </mxCell>
        <mxCell id="OjJVH0gl61xDJa_e_lBE-8" value="" style="edgeStyle=orthogonalEdgeStyle;rounded=0;orthogonalLoop=1;jettySize=auto;html=1;" edge="1" parent="1" source="OjJVH0gl61xDJa_e_lBE-5" target="OjJVH0gl61xDJa_e_lBE-7">
          <mxGeometry relative="1" as="geometry" />
        </mxCell>
        <mxCell id="OjJVH0gl61xDJa_e_lBE-5" value="Informe a data do envento:&amp;nbsp;&amp;nbsp;" style="shape=display;whiteSpace=wrap;html=1;" vertex="1" parent="1">
          <mxGeometry x="80" y="130" width="120" height="70" as="geometry" />
        </mxCell>
        <mxCell id="OjJVH0gl61xDJa_e_lBE-11" value="" style="edgeStyle=orthogonalEdgeStyle;rounded=0;orthogonalLoop=1;jettySize=auto;html=1;" edge="1" parent="1" source="OjJVH0gl61xDJa_e_lBE-7" target="OjJVH0gl61xDJa_e_lBE-10">
          <mxGeometry relative="1" as="geometry" />
        </mxCell>
        <mxCell id="OjJVH0gl61xDJa_e_lBE-7" value="Data" style="shape=manualInput;whiteSpace=wrap;html=1;" vertex="1" parent="1">
          <mxGeometry x="80" y="220" width="120" height="60" as="geometry" />
        </mxCell>
        <mxCell id="OjJVH0gl61xDJa_e_lBE-10" value="A Data é posterior à atual?" style="rhombus;whiteSpace=wrap;html=1;" vertex="1" parent="1">
          <mxGeometry x="95" y="310" width="90" height="80" as="geometry" />
        </mxCell>
        <mxCell id="OjJVH0gl61xDJa_e_lBE-23" value="" style="edgeStyle=orthogonalEdgeStyle;rounded=0;orthogonalLoop=1;jettySize=auto;html=1;exitX=1;exitY=0.5;exitDx=0;exitDy=0;entryX=0;entryY=0.5;entryDx=0;entryDy=0;entryPerimeter=0;" edge="1" parent="1" source="OjJVH0gl61xDJa_e_lBE-25" target="OjJVH0gl61xDJa_e_lBE-54">
          <mxGeometry relative="1" as="geometry">
            <mxPoint x="500" y="450" as="sourcePoint" />
            <mxPoint x="510" y="580" as="targetPoint" />
          </mxGeometry>
        </mxCell>
        <mxCell id="OjJVH0gl61xDJa_e_lBE-26" value="" style="edgeStyle=orthogonalEdgeStyle;rounded=0;orthogonalLoop=1;jettySize=auto;html=1;" edge="1" parent="1" source="OjJVH0gl61xDJa_e_lBE-12" target="OjJVH0gl61xDJa_e_lBE-25">
          <mxGeometry relative="1" as="geometry" />
        </mxCell>
        <mxCell id="OjJVH0gl61xDJa_e_lBE-12" value="&lt;strong style=&quot;box-sizing: border-box ; color: rgb(51 , 51 , 51) ; font-family: &amp;#34;open sans&amp;#34; , &amp;#34;clear sans&amp;#34; , &amp;#34;helvetica neue&amp;#34; , &amp;#34;helvetica&amp;#34; , &amp;#34;arial&amp;#34; , &amp;#34;segoe ui emoji&amp;#34; , sans-serif ; font-size: 16px ; background-color: rgb(255 , 255 , 255)&quot;&gt;&lt;span class=&quot;md-plain&quot; style=&quot;box-sizing: border-box&quot;&gt;Data inválida&lt;/span&gt;&lt;/strong&gt;" style="shape=display;whiteSpace=wrap;html=1;" vertex="1" parent="1">
          <mxGeometry x="240" y="325" width="100" height="50" as="geometry" />
        </mxCell>
        <mxCell id="OjJVH0gl61xDJa_e_lBE-28" value="" style="edgeStyle=orthogonalEdgeStyle;rounded=0;orthogonalLoop=1;jettySize=auto;html=1;" edge="1" parent="1" source="OjJVH0gl61xDJa_e_lBE-13" target="OjJVH0gl61xDJa_e_lBE-27">
          <mxGeometry relative="1" as="geometry" />
        </mxCell>
        <mxCell id="OjJVH0gl61xDJa_e_lBE-13" value="Data válida&amp;nbsp;&amp;nbsp;" style="shape=display;whiteSpace=wrap;html=1;" vertex="1" parent="1">
          <mxGeometry x="90" y="440" width="100" height="50" as="geometry" />
        </mxCell>
        <mxCell id="OjJVH0gl61xDJa_e_lBE-17" value="" style="shape=flexArrow;endArrow=classic;html=1;rounded=0;entryX=0;entryY=0.5;entryDx=0;entryDy=0;entryPerimeter=0;exitX=1;exitY=0.5;exitDx=0;exitDy=0;" edge="1" parent="1" source="OjJVH0gl61xDJa_e_lBE-10" target="OjJVH0gl61xDJa_e_lBE-12">
          <mxGeometry width="50" height="50" relative="1" as="geometry">
            <mxPoint x="250" y="590" as="sourcePoint" />
            <mxPoint x="300" y="540" as="targetPoint" />
            <Array as="points" />
          </mxGeometry>
        </mxCell>
        <mxCell id="OjJVH0gl61xDJa_e_lBE-18" value="Não" style="edgeLabel;html=1;align=center;verticalAlign=middle;resizable=0;points=[];" vertex="1" connectable="0" parent="OjJVH0gl61xDJa_e_lBE-17">
          <mxGeometry x="-0.3662" y="-4" relative="1" as="geometry">
            <mxPoint as="offset" />
          </mxGeometry>
        </mxCell>
        <mxCell id="OjJVH0gl61xDJa_e_lBE-19" value="" style="shape=flexArrow;endArrow=classic;html=1;rounded=0;exitX=0.5;exitY=1;exitDx=0;exitDy=0;entryX=0;entryY=0;entryDx=50;entryDy=0;entryPerimeter=0;" edge="1" parent="1" source="OjJVH0gl61xDJa_e_lBE-10" target="OjJVH0gl61xDJa_e_lBE-13">
          <mxGeometry width="50" height="50" relative="1" as="geometry">
            <mxPoint x="250" y="590" as="sourcePoint" />
            <mxPoint x="300" y="540" as="targetPoint" />
          </mxGeometry>
        </mxCell>
        <mxCell id="OjJVH0gl61xDJa_e_lBE-20" value="Sim" style="edgeLabel;html=1;align=center;verticalAlign=middle;resizable=0;points=[];" vertex="1" connectable="0" parent="OjJVH0gl61xDJa_e_lBE-19">
          <mxGeometry x="-0.4114" relative="1" as="geometry">
            <mxPoint as="offset" />
          </mxGeometry>
        </mxCell>
        <mxCell id="OjJVH0gl61xDJa_e_lBE-21" value="FIM" style="ellipse;whiteSpace=wrap;html=1;" vertex="1" parent="1">
          <mxGeometry x="720" y="440" width="120" height="80" as="geometry" />
        </mxCell>
        <mxCell id="OjJVH0gl61xDJa_e_lBE-25" value="Negar cadastro&amp;nbsp;" style="rounded=0;whiteSpace=wrap;html=1;" vertex="1" parent="1">
          <mxGeometry x="390" y="450" width="130" height="60" as="geometry" />
        </mxCell>
        <mxCell id="OjJVH0gl61xDJa_e_lBE-37" value="" style="edgeStyle=orthogonalEdgeStyle;rounded=0;orthogonalLoop=1;jettySize=auto;html=1;" edge="1" parent="1" source="OjJVH0gl61xDJa_e_lBE-27" target="OjJVH0gl61xDJa_e_lBE-36">
          <mxGeometry relative="1" as="geometry" />
        </mxCell>
        <mxCell id="OjJVH0gl61xDJa_e_lBE-27" value="Permitir evento" style="rounded=0;whiteSpace=wrap;html=1;" vertex="1" parent="1">
          <mxGeometry x="90" y="520" width="100" height="50" as="geometry" />
        </mxCell>
        <mxCell id="OjJVH0gl61xDJa_e_lBE-32" value="" style="edgeStyle=orthogonalEdgeStyle;rounded=0;orthogonalLoop=1;jettySize=auto;html=1;" edge="1" parent="1" source="OjJVH0gl61xDJa_e_lBE-29" target="OjJVH0gl61xDJa_e_lBE-31">
          <mxGeometry relative="1" as="geometry" />
        </mxCell>
        <mxCell id="OjJVH0gl61xDJa_e_lBE-29" value="Informe a sua idade:" style="shape=display;whiteSpace=wrap;html=1;" vertex="1" parent="1">
          <mxGeometry x="75" y="760" width="130" height="60" as="geometry" />
        </mxCell>
        <mxCell id="OjJVH0gl61xDJa_e_lBE-46" value="" style="edgeStyle=orthogonalEdgeStyle;rounded=0;orthogonalLoop=1;jettySize=auto;html=1;" edge="1" parent="1" source="OjJVH0gl61xDJa_e_lBE-31" target="OjJVH0gl61xDJa_e_lBE-45">
          <mxGeometry relative="1" as="geometry" />
        </mxCell>
        <mxCell id="OjJVH0gl61xDJa_e_lBE-31" value="IDADE" style="shape=manualInput;whiteSpace=wrap;html=1;" vertex="1" parent="1">
          <mxGeometry x="80" y="860" width="120" height="70" as="geometry" />
        </mxCell>
        <mxCell id="OjJVH0gl61xDJa_e_lBE-36" value="&lt;div&gt;&lt;font color=&quot;#c8c3bc&quot; face=&quot;Open Sans, Clear Sans, Helvetica Neue, Helvetica, Arial, Segoe UI Emoji, sans-serif&quot;&gt;&lt;span style=&quot;font-size: 16px ; background-color: rgb(24 , 26 , 27)&quot;&gt;&lt;b&gt;Quantidade de participantes é inferior a 100?&lt;/b&gt;&lt;/span&gt;&lt;/font&gt;&lt;/div&gt;" style="rhombus;whiteSpace=wrap;html=1;" vertex="1" parent="1">
          <mxGeometry x="85" y="600" width="110" height="110" as="geometry" />
        </mxCell>
        <mxCell id="OjJVH0gl61xDJa_e_lBE-38" value="" style="shape=flexArrow;endArrow=classic;html=1;rounded=0;exitX=0.5;exitY=1;exitDx=0;exitDy=0;entryX=0;entryY=0;entryDx=66.25;entryDy=0;entryPerimeter=0;" edge="1" parent="1" source="OjJVH0gl61xDJa_e_lBE-36" target="OjJVH0gl61xDJa_e_lBE-29">
          <mxGeometry width="50" height="50" relative="1" as="geometry">
            <mxPoint x="390" y="710" as="sourcePoint" />
            <mxPoint x="440" y="660" as="targetPoint" />
          </mxGeometry>
        </mxCell>
        <mxCell id="OjJVH0gl61xDJa_e_lBE-39" value="Sim" style="edgeLabel;html=1;align=center;verticalAlign=middle;resizable=0;points=[];" vertex="1" connectable="0" parent="OjJVH0gl61xDJa_e_lBE-38">
          <mxGeometry x="-0.3061" y="-3" relative="1" as="geometry">
            <mxPoint as="offset" />
          </mxGeometry>
        </mxCell>
        <mxCell id="OjJVH0gl61xDJa_e_lBE-40" value="" style="shape=flexArrow;endArrow=classic;html=1;rounded=0;exitX=1;exitY=0.5;exitDx=0;exitDy=0;entryX=0;entryY=0.5;entryDx=0;entryDy=0;entryPerimeter=0;" edge="1" parent="1" source="OjJVH0gl61xDJa_e_lBE-36" target="OjJVH0gl61xDJa_e_lBE-42">
          <mxGeometry width="50" height="50" relative="1" as="geometry">
            <mxPoint x="390" y="580" as="sourcePoint" />
            <mxPoint x="240" y="655" as="targetPoint" />
          </mxGeometry>
        </mxCell>
        <mxCell id="OjJVH0gl61xDJa_e_lBE-41" value="Não" style="edgeLabel;html=1;align=center;verticalAlign=middle;resizable=0;points=[];" vertex="1" connectable="0" parent="OjJVH0gl61xDJa_e_lBE-40">
          <mxGeometry x="-0.4039" y="-2" relative="1" as="geometry">
            <mxPoint as="offset" />
          </mxGeometry>
        </mxCell>
        <mxCell id="OjJVH0gl61xDJa_e_lBE-42" value="Limite de participantes excedido" style="shape=display;whiteSpace=wrap;html=1;" vertex="1" parent="1">
          <mxGeometry x="250" y="625" width="100" height="60" as="geometry" />
        </mxCell>
        <mxCell id="OjJVH0gl61xDJa_e_lBE-43" value="" style="endArrow=classic;html=1;rounded=0;exitX=0;exitY=0;exitDx=47.5;exitDy=0;exitPerimeter=0;entryX=0;entryY=0.5;entryDx=0;entryDy=0;" edge="1" parent="1" source="OjJVH0gl61xDJa_e_lBE-42" target="OjJVH0gl61xDJa_e_lBE-25">
          <mxGeometry width="50" height="50" relative="1" as="geometry">
            <mxPoint x="390" y="560" as="sourcePoint" />
            <mxPoint x="440" y="510" as="targetPoint" />
            <Array as="points">
              <mxPoint x="300" y="480" />
            </Array>
          </mxGeometry>
        </mxCell>
        <mxCell id="OjJVH0gl61xDJa_e_lBE-44" style="edgeStyle=orthogonalEdgeStyle;rounded=0;orthogonalLoop=1;jettySize=auto;html=1;exitX=0.5;exitY=1;exitDx=0;exitDy=0;" edge="1" parent="1" source="OjJVH0gl61xDJa_e_lBE-31" target="OjJVH0gl61xDJa_e_lBE-31">
          <mxGeometry relative="1" as="geometry" />
        </mxCell>
        <mxCell id="OjJVH0gl61xDJa_e_lBE-45" value="Idade maior que 18?" style="rhombus;whiteSpace=wrap;html=1;" vertex="1" parent="1">
          <mxGeometry x="260" y="855" width="80" height="80" as="geometry" />
        </mxCell>
        <mxCell id="OjJVH0gl61xDJa_e_lBE-47" value="" style="shape=flexArrow;endArrow=classic;html=1;rounded=0;exitX=1;exitY=0.5;exitDx=0;exitDy=0;" edge="1" parent="1" source="OjJVH0gl61xDJa_e_lBE-45">
          <mxGeometry width="50" height="50" relative="1" as="geometry">
            <mxPoint x="460" y="770" as="sourcePoint" />
            <mxPoint x="400" y="895" as="targetPoint" />
          </mxGeometry>
        </mxCell>
        <mxCell id="OjJVH0gl61xDJa_e_lBE-51" value="Sim" style="edgeLabel;html=1;align=center;verticalAlign=middle;resizable=0;points=[];" vertex="1" connectable="0" parent="OjJVH0gl61xDJa_e_lBE-47">
          <mxGeometry x="0.5111" y="-10" relative="1" as="geometry">
            <mxPoint x="-15" y="-10" as="offset" />
          </mxGeometry>
        </mxCell>
        <mxCell id="OjJVH0gl61xDJa_e_lBE-48" value="" style="shape=flexArrow;endArrow=classic;html=1;rounded=0;exitX=0.5;exitY=0;exitDx=0;exitDy=0;" edge="1" parent="1" source="OjJVH0gl61xDJa_e_lBE-45">
          <mxGeometry width="50" height="50" relative="1" as="geometry">
            <mxPoint x="460" y="770" as="sourcePoint" />
            <mxPoint x="300" y="820" as="targetPoint" />
          </mxGeometry>
        </mxCell>
        <mxCell id="OjJVH0gl61xDJa_e_lBE-53" value="Não" style="edgeLabel;html=1;align=center;verticalAlign=middle;resizable=0;points=[];" vertex="1" connectable="0" parent="OjJVH0gl61xDJa_e_lBE-48">
          <mxGeometry x="-0.5818" y="-5" relative="1" as="geometry">
            <mxPoint as="offset" />
          </mxGeometry>
        </mxCell>
        <mxCell id="OjJVH0gl61xDJa_e_lBE-50" value="" style="edgeStyle=orthogonalEdgeStyle;rounded=0;orthogonalLoop=1;jettySize=auto;html=1;" edge="1" parent="1" source="OjJVH0gl61xDJa_e_lBE-49" target="OjJVH0gl61xDJa_e_lBE-45">
          <mxGeometry relative="1" as="geometry" />
        </mxCell>
        <mxCell id="OjJVH0gl61xDJa_e_lBE-57" value="" style="edgeStyle=orthogonalEdgeStyle;rounded=0;orthogonalLoop=1;jettySize=auto;html=1;" edge="1" parent="1" source="OjJVH0gl61xDJa_e_lBE-49" target="OjJVH0gl61xDJa_e_lBE-56">
          <mxGeometry relative="1" as="geometry" />
        </mxCell>
        <mxCell id="OjJVH0gl61xDJa_e_lBE-49" value="Efetuar cadastro, adicionar nome na lista" style="rounded=0;whiteSpace=wrap;html=1;" vertex="1" parent="1">
          <mxGeometry x="400" y="865" width="120" height="60" as="geometry" />
        </mxCell>
        <mxCell id="OjJVH0gl61xDJa_e_lBE-55" value="" style="edgeStyle=orthogonalEdgeStyle;rounded=0;orthogonalLoop=1;jettySize=auto;html=1;" edge="1" parent="1" source="OjJVH0gl61xDJa_e_lBE-54" target="OjJVH0gl61xDJa_e_lBE-21">
          <mxGeometry relative="1" as="geometry" />
        </mxCell>
        <mxCell id="OjJVH0gl61xDJa_e_lBE-54" value="Lista de participantes e Palestrantes&lt;br&gt;" style="shape=display;whiteSpace=wrap;html=1;" vertex="1" parent="1">
          <mxGeometry x="570" y="445" width="120" height="70" as="geometry" />
        </mxCell>
        <mxCell id="OjJVH0gl61xDJa_e_lBE-59" value="" style="edgeStyle=orthogonalEdgeStyle;rounded=0;orthogonalLoop=1;jettySize=auto;html=1;" edge="1" parent="1" source="OjJVH0gl61xDJa_e_lBE-56" target="OjJVH0gl61xDJa_e_lBE-54">
          <mxGeometry relative="1" as="geometry">
            <mxPoint x="640" y="520" as="targetPoint" />
          </mxGeometry>
        </mxCell>
        <mxCell id="OjJVH0gl61xDJa_e_lBE-56" value="Cadastro finalizado!" style="shape=display;whiteSpace=wrap;html=1;" vertex="1" parent="1">
          <mxGeometry x="590" y="875" width="80" height="40" as="geometry" />
        </mxCell>
        <mxCell id="OjJVH0gl61xDJa_e_lBE-62" value="" style="edgeStyle=orthogonalEdgeStyle;rounded=0;orthogonalLoop=1;jettySize=auto;html=1;entryX=0.5;entryY=1;entryDx=0;entryDy=0;" edge="1" parent="1" source="OjJVH0gl61xDJa_e_lBE-60" target="OjJVH0gl61xDJa_e_lBE-25">
          <mxGeometry relative="1" as="geometry">
            <mxPoint x="460" y="800" as="targetPoint" />
          </mxGeometry>
        </mxCell>
        <mxCell id="OjJVH0gl61xDJa_e_lBE-60" value="Idade inválida&amp;nbsp;" style="shape=display;whiteSpace=wrap;html=1;" vertex="1" parent="1">
          <mxGeometry x="260" y="780" width="80" height="40" as="geometry" />
        </mxCell>
      </root>
    </mxGraphModel>
  </diagram>
</mxfile>
